<?xml version="1.0" encoding="iso-8859-1"?>
<!-- Uploaded to: SVG Repo, www.svgrepo.com, Generator: SVG Repo Mixer Tools -->
<svg height="800px" width="800px" version="1.1" id="Layer_1" xmlns="http://www.w3.org/2000/svg" xmlns:xlink="http://www.w3.org/1999/xlink" 
	 viewBox="0 0 512.001 512.001" xml:space="preserve">
<path style="fill:#D1D3D4;" d="M244.899,284.509l-19.687,1.745l-17.106-7.753L255.975,0h10.217c10.587,0,19.17,8.582,19.17,19.17
	v220.318C264.966,245.837,249.253,263.312,244.899,284.509z"/>
<path style="fill:#BCBEC0;" d="M285.362,126.94L263.597,0h-7.622l-37.529,218.349v31.505c12.174,3.788,23.006,10.757,31.598,19.885
	c7.185-14.303,19.911-25.455,35.318-30.25L285.362,126.94L285.362,126.94z"/>
<path style="fill:#E6E7E8;" d="M267.101,284.509l21.551,1.636l15.124-7.623L256.025,0h-10.217c-10.587,0-19.17,8.582-19.17,19.17
	v220.318C247.034,245.837,262.746,263.312,267.101,284.509z"/>
<path style="fill:#F5BA3D;" d="M336.042,351.964c-1.22,0-2.434,0.027-3.641,0.083c-9.805,0.448-18.001-7.358-18.001-17.173v-47.487
	c0-5.556-4.979-9.788-10.462-8.893l-47.913,7.822v144.472c0,43.977,34.982,80.633,78.956,81.204
	c44.68,0.579,81.08-35.465,81.08-80.011C416.061,387.789,380.236,351.964,336.042,351.964z M336.043,470.393
	c-21.214,0-38.411-17.197-38.411-38.411s17.197-38.411,38.411-38.411s38.411,17.197,38.411,38.411S357.256,470.393,336.043,470.393z
	"/>
<path style="fill:#EF9325;" d="M336.043,351.964c-1.22,0-2.434,0.027-3.641,0.083c-9.805,0.448-18.001-7.358-18.001-17.173v-47.487
	c0-5.556-4.979-9.788-10.462-8.893l-9.727,1.588c2.252,1.624,3.75,4.263,3.75,7.305v47.487c0,9.815,8.196,17.62,18.001,17.173
	c1.207-0.055,2.421-0.083,3.641-0.083c44.193,0,80.018,35.826,80.018,80.018c0,41.407-31.457,75.448-71.773,79.579
	c2.349,0.243,4.725,0.401,7.133,0.432c44.68,0.579,81.08-35.465,81.08-80.011C416.061,387.789,380.236,351.964,336.043,351.964z"/>
<path style="fill:#F5BA3D;" d="M208.062,278.495c-5.484-0.895-10.462,3.337-10.462,8.893v47.487c0,9.815-8.196,17.62-18.001,17.173
	c-1.207-0.055-2.421-0.083-3.641-0.083c-44.193,0-80.018,35.826-80.018,80.018c0,44.546,36.401,80.59,81.08,80.011
	c43.973-0.571,78.956-37.227,78.956-81.204V286.317L208.062,278.495z M175.958,470.393c-21.214,0-38.411-17.197-38.411-38.411
	s17.197-38.411,38.411-38.411s38.411,17.197,38.411,38.411S197.171,470.393,175.958,470.393z"/>
<g>
	<path style="fill:#EF9325;" d="M157.293,359.906c1.22,0,2.434,0.027,3.641,0.083c6.43,0.293,12.15-2.974,15.338-8.018
		c-0.106,0-0.21-0.007-0.316-0.007c-14.739,0-28.536,4.002-40.395,10.953C142.475,360.97,149.758,359.906,157.293,359.906z"/>
	<path style="fill:#EF9325;" d="M208.062,278.495c-5.484-0.895-10.462,3.337-10.462,8.893v0.388l39.712,6.483v144.472
		c0,29.82-16.096,56.26-40.163,70.378c34.054-9.499,58.828-41.314,58.828-78.321V286.317L208.062,278.495z"/>
</g>
<circle style="fill:#939598;" cx="260.938" cy="216.513" r="8.935"/>
</svg>